<?xml version="1.0" standalone="no"?>
<!DOCTYPE svg PUBLIC "-//W3C//DTD SVG 20010904//EN"
 "http://www.w3.org/TR/2001/REC-SVG-20010904/DTD/svg10.dtd">
<svg version="1.0" xmlns="http://www.w3.org/2000/svg"
 width="124.000000pt" height="124.000000pt" viewBox="0 0 124.000000 124.000000"
 preserveAspectRatio="xMidYMid meet">
<metadata>
Created by potrace 1.11, written by Peter Selinger 2001-2013
</metadata>
<g transform="translate(0.000000,124.000000) scale(0.100000,-0.100000)"
fill="#000000" stroke="none">
<path d="M564 1150 c-123 -18 -228 -71 -314 -159 -77 -79 -114 -143 -140 -247
-25 -98 -25 -161 0 -258 61 -241 270 -405 515 -406 168 0 282 48 393 164 101
107 151 227 152 368 2 317 -299 584 -606 538z m-106 -361 c12 1 45 2 73 4 47
2 53 -1 85 -35 l34 -38 0 -109 c0 -111 -9 -141 -44 -141 -33 0 -45 35 -48 135
-3 99 -3 100 -28 100 -25 0 -25 -1 -30 -108 -5 -106 -12 -127 -45 -127 -33 0
-40 21 -45 127 -5 107 -5 108 -30 108 -25 0 -25 -1 -30 -108 -4 -81 -9 -110
-20 -117 -22 -14 -36 -12 -54 6 -13 12 -16 38 -16 118 0 91 3 107 23 137 31
46 63 61 112 53 22 -3 50 -5 63 -5z m481 -16 c66 -50 92 -144 56 -212 -34 -67
-124 -106 -187 -82 -28 10 -28 10 -28 -34 0 -65 -38 -95 -74 -59 -13 12 -16
41 -16 148 0 117 3 137 23 176 41 83 156 115 226 63z"/>
<path d="M802 687 c-67 -72 34 -172 103 -102 14 13 25 36 25 50 0 35 -42 75
-78 75 -17 0 -37 -9 -50 -23z"/>
</g>
</svg>
